<svg xmlns="http://www.w3.org/2000/svg" version="1.1" xmlns:xlink="http://www.w3.org/1999/xlink" xmlns:svgjs="http://svgjs.dev/svgjs" width="1500" height="1500" viewBox="0 0 1500 1500"><rect width="1500" height="1500" fill="#ffffff"></rect><g transform="matrix(0.6666666666666666,0,0,0.6666666666666666,249.50000000000006,249.5004686713021)"><svg viewBox="0 0 280 280" data-background-color="#ffffff" preserveAspectRatio="xMidYMid meet" height="1500" width="1500" xmlns="http://www.w3.org/2000/svg" xmlns:xlink="http://www.w3.org/1999/xlink"><g id="tight-bounds" transform="matrix(1,0,0,1,0.13999999999998636,0.14009924078541758)"><svg viewBox="0 0 279.72 279.72" height="279.72" width="279.72"><g><svg viewBox="0 0 279.72 279.72" height="279.72" width="279.72"><g><svg viewBox="0 0 279.72 279.72" height="279.72" width="279.72"><g id="textblocktransform"><svg viewBox="0 0 279.72 279.72" height="279.72" width="279.72" id="textblock"><g><svg viewBox="0 0 279.72 279.72" height="279.72" width="279.72"><g transform="matrix(1,0,0,1,73.92936372216631,75.5076190916792)"><svg viewBox="0 0 131.8612725556674 128.70476181664162" height="128.70476181664162" width="131.8612725556674"><g id="icon-0"><svg xmlns="http://www.w3.org/2000/svg" xmlns:xlink="http://www.w3.org/1999/xlink" version="1.1" x="0" y="0" viewBox="15.192739613003013 16.026000000000003 69.61443904022181 67.94800036446165" enable-background="new 0 0 100 100" xml:space="preserve" height="128.70476181664162" width="131.8612725556674" class="icon-xg-0" data-fill-palette-color="accent" id="xg-0"><g fill="#f1aaa7" data-fill-palette-color="accent"><path d="M84.723 59.429c-0.272-0.783-1.13-1.197-1.91-0.922-8.734 3.049-15.025 4.208-20.017 4.256l0.036-8.597 9.505 3.826c0.184 0.074 0.374 0.108 0.561 0.108 0.594 0 1.156-0.355 1.392-0.939 0.31-0.769-0.063-1.643-0.831-1.952l-10.612-4.271 0.02-4.82 8.288 3.255c0.772 0.302 1.642-0.077 1.945-0.848 0.303-0.771-0.077-1.642-0.848-1.944l-9.372-3.681 0.02-4.701 7.192 3.059c0.765 0.326 1.644-0.031 1.967-0.793 0.324-0.762-0.03-1.643-0.793-1.967l-8.352-3.552 0.015-3.453 4.719 2.241c0.749 0.354 1.644 0.037 1.998-0.711 0.355-0.749 0.037-1.643-0.711-1.999l-5.992-2.846 0.012-2.823 1.773 0.842c0.748 0.354 1.644 0.037 1.998-0.711 0.355-0.748 0.037-1.643-0.711-1.999l-3.906-1.855c-0.007-0.003-0.015-0.004-0.022-0.007-0.102-0.046-0.208-0.084-0.32-0.107-0.013-0.003-0.026-0.002-0.04-0.004-0.083-0.015-0.168-0.026-0.256-0.027-0.002 0-0.004 0-0.006 0-0.012 0-0.022 0.003-0.034 0.003-0.036 0.001-0.071 0.007-0.108 0.011-0.078 0.007-0.154 0.018-0.228 0.037-0.037 0.009-0.072 0.021-0.108 0.033-0.074 0.025-0.146 0.056-0.214 0.092-0.02 0.011-0.043 0.015-0.063 0.027l-5.119 2.976c-0.716 0.417-0.959 1.334-0.543 2.051 0.278 0.479 0.781 0.747 1.298 0.747 0.257 0 0.516-0.066 0.753-0.204l2.854-1.659-0.011 2.687-6.569 3.819c-0.716 0.417-0.959 1.334-0.543 2.051 0.278 0.479 0.781 0.747 1.298 0.747 0.257 0 0.516-0.066 0.753-0.204l5.047-2.935-0.014 3.413-7.715 5.014-5.285-4.54c-0.545-0.468-1.345-0.484-1.908-0.039l-7.483 5.918-3.246-3.792c-0.502-0.587-1.369-0.697-2.001-0.252l-8.713 6.117c-0.678 0.476-0.842 1.412-0.366 2.089 0.292 0.416 0.757 0.638 1.229 0.638 0.297 0 0.598-0.088 0.86-0.272l7.598-5.334 2.284 2.669-5.009 3.962c-0.649 0.514-0.76 1.457-0.246 2.107 0.296 0.374 0.734 0.569 1.177 0.569 0.326 0 0.654-0.105 0.93-0.324l13.876-10.976 3.681 3.162-2.582 1.678c-0.695 0.452-0.892 1.381-0.44 2.075 0.288 0.442 0.769 0.683 1.259 0.683 0.28 0 0.563-0.078 0.816-0.242l11.268-7.324-0.019 4.45-11.198 7.54c-0.687 0.462-0.869 1.395-0.406 2.082 0.29 0.431 0.763 0.663 1.246 0.663 0.288 0 0.58-0.083 0.836-0.256l9.507-6.402-0.019 4.399-4.977 3.108c-0.702 0.438-0.916 1.364-0.478 2.067 0.438 0.702 1.362 0.916 2.067 0.478l3.373-2.106-0.033 7.864c-5.017-0.435-8.711-2.054-12.661-3.791-6.345-2.79-13.537-5.951-27.441-4.733-0.825 0.072-1.436 0.8-1.363 1.625 0.072 0.826 0.804 1.443 1.625 1.363 13.14-1.147 19.663 1.718 25.972 4.491 4.797 2.109 9.442 4.152 16.491 4.152 5.362-0.001 12.115-1.184 21.382-4.419C84.583 61.067 84.996 60.211 84.723 59.429z" fill="#f1aaa7" data-fill-palette-color="accent"></path><path d="M76.403 69.484c-14.75 4.15-20.575 1.831-26.743-0.624-3.644-1.449-7.411-2.949-13.01-3.324-0.827-0.055-1.542 0.57-1.597 1.396-0.056 0.827 0.57 1.542 1.396 1.598 5.128 0.343 8.673 1.754 12.101 3.118 3.868 1.539 7.815 3.109 13.853 3.109 3.891 0 8.648-0.652 14.812-2.385 0.797-0.225 1.262-1.053 1.038-1.851C78.029 69.725 77.198 69.262 76.403 69.484z" fill="#f1aaa7" data-fill-palette-color="accent"></path><path d="M72.443 79.153c-11.964 3.812-20.245 0.947-29.012-2.084-7.895-2.729-16.06-5.553-27.032-3.357-0.812 0.162-1.339 0.952-1.177 1.765 0.162 0.812 0.951 1.344 1.765 1.177 10.176-2.032 17.602 0.533 25.463 3.251 5.82 2.013 11.77 4.07 18.838 4.069 3.673 0 7.649-0.556 12.064-1.961 0.789-0.252 1.226-1.096 0.975-1.885S73.233 78.903 72.443 79.153z" fill="#f1aaa7" data-fill-palette-color="accent"></path><path d="M36.823 27.46c3.152 0 5.717-2.564 5.717-5.717s-2.564-5.717-5.717-5.717-5.717 2.564-5.717 5.717S33.67 27.46 36.823 27.46zM36.823 19.027c1.498 0 2.717 1.219 2.717 2.717s-1.219 2.717-2.717 2.717c-1.499 0-2.717-1.219-2.717-2.717S35.324 19.027 36.823 19.027z" fill="#f1aaa7" data-fill-palette-color="accent"></path></g></svg></g></svg></g><g id="text-0"><path d="M23.217 109.103l-22.243-7.542 5.804-17.117 2.696 0.915-4.76 14.038 6.842 2.32 4.279-12.617 2.686 0.911-4.279 12.617 7.333 2.486 4.827-14.234 2.686 0.911z" fill="#9bd4ff" data-fill-palette-color="primary"></path><path d="M31.468 87.625l-15.755-8.707 1.106-2.002 2.286 0.873 0.115-0.209c-1.014-2.074-0.863-4.301 0.452-6.681v0c0.871-1.576 1.963-2.554 3.276-2.932 1.322-0.381 2.923-0.052 4.801 0.986v0l10.754 5.943-1.457 2.637-10.573-5.843c-1.262-0.698-2.293-0.901-3.093-0.61-0.796 0.285-1.487 0.956-2.071 2.014v0c-0.421 0.761-0.624 1.563-0.609 2.407 0.021 0.847 0.273 1.653 0.758 2.417 0.494 0.762 1.212 1.403 2.153 1.924v0l9.314 5.147z" fill="#9bd4ff" data-fill-palette-color="primary"></path><path d="M24.622 57.749l-2.698-1.991 1.788-2.424 2.699 1.992zM46.404 74.761c-0.475 0.644-1.053 1.195-1.734 1.654v0l-1.566-1.156 0.891-1.208c0.639-0.866 0.517-1.625-0.366-2.276v0l-16.275-12.01 1.789-2.423 16.167 11.929c0.955 0.705 1.575 1.527 1.859 2.466 0.289 0.934 0.034 1.942-0.765 3.024z" fill="#9bd4ff" data-fill-palette-color="primary"></path><path d="M52.557 58.606c-1.885 2.017-3.868 3.007-5.949 2.97-2.071-0.037-4.274-1.147-6.608-3.328v0c-2.334-2.182-3.59-4.304-3.768-6.369-0.173-2.069 0.683-4.112 2.568-6.129v0c1.885-2.017 3.865-3.009 5.941-2.977 2.076 0.032 4.281 1.139 6.616 3.321v0c2.334 2.182 3.588 4.307 3.761 6.376 0.178 2.074-0.676 4.119-2.561 6.136zM50.727 56.896c1.249-1.336 1.768-2.665 1.557-3.986-0.216-1.326-1.198-2.806-2.948-4.441v0l-0.205-0.19c-1.75-1.635-3.293-2.515-4.63-2.641-1.337-0.126-2.63 0.48-3.878 1.816v0c-1.244 1.331-1.758 2.659-1.542 3.985 0.216 1.326 1.198 2.806 2.948 4.44v0l0.204 0.191c1.75 1.635 3.293 2.515 4.63 2.641 1.332 0.121 2.62-0.484 3.864-1.815z" fill="#9bd4ff" data-fill-palette-color="primary"></path><path d="M66.443 53.476c-0.798 0.616-1.488 1.031-2.072 1.246v0l-1.189-1.54 0.95-0.734c1.841-1.421 2.235-3.412 1.182-5.973v0l-16.497-10.006 2.524-1.948 8.151 5.072c1.157 0.72 2.822 1.815 4.994 3.284v0l0.139-0.107c-0.897-2.246-1.605-4.079-2.126-5.499v0l-3.226-8.872 2.384-1.841 5.749 17.138c0.763 2.288 1.122 4.238 1.077 5.851-0.044 1.603-0.724 2.913-2.04 3.929z" fill="#9bd4ff" data-fill-palette-color="primary"></path><path d="M90.719 31.34l-8.254-18.918-7.4 3.229-1.139-2.609 17.789-7.762 1.139 2.609-7.41 3.233 8.254 18.918z" fill="#9bd4ff" data-fill-palette-color="primary"></path><path d="M104.822 25.824l-6.175-23.968 2.917-0.751 2.187 8.49 0.231-0.059c0.812-1.884 2.444-3.142 4.896-3.774v0c3.622-0.933 5.943 0.578 6.962 4.534v0l3.066 11.899-2.917 0.751-3.014-11.698c-0.36-1.397-0.92-2.286-1.682-2.666-0.754-0.383-1.716-0.424-2.885-0.123v0c-0.842 0.217-1.565 0.621-2.168 1.211-0.602 0.597-1.014 1.334-1.237 2.211-0.215 0.882-0.188 1.844 0.081 2.886v0l2.655 10.305z" fill="#9bd4ff" data-fill-palette-color="primary"></path><path d="M131.72 21.484c-2.889 0.237-5.101-0.35-6.636-1.761-1.535-1.404-2.434-3.712-2.698-6.924v0c-0.263-3.205 0.248-5.629 1.532-7.272 1.285-1.636 3.372-2.572 6.261-2.809v0c2.593-0.213 4.589 0.316 5.988 1.585 1.399 1.27 2.224 3.428 2.474 6.476v0l0.123 1.506-13.205 1.084c0.28 2.061 0.901 3.547 1.862 4.459 0.955 0.919 2.319 1.305 4.094 1.159v0c1.431-0.117 2.562-0.543 3.395-1.276 0.833-0.733 1.194-1.781 1.082-3.142v0l2.94-0.241c0.172 2.091-0.418 3.76-1.77 5.006-1.352 1.247-3.166 1.963-5.442 2.15zM125.426 10.866l9.987-0.819c-0.286-3.48-1.962-5.094-5.03-4.843v0c-1.706 0.14-2.951 0.654-3.737 1.543-0.786 0.888-1.192 2.262-1.22 4.119z" fill="#9bd4ff" data-fill-palette-color="primary"></path><path d="M165.18 24.173c-3.647-0.734-6.27-2.303-7.869-4.708-1.6-2.405-2.003-5.577-1.211-9.514v0c0.792-3.937 2.391-6.706 4.796-8.306 2.405-1.6 5.431-2.033 9.078-1.299v0c3.674 0.739 6.31 2.311 7.91 4.717 1.6 2.405 2.003 5.577 1.211 9.514v0c-0.787 3.91-2.384 6.672-4.792 8.285-2.408 1.613-5.449 2.05-9.123 1.311zM165.727 21.454c2.666 0.536 4.847 0.225 6.544-0.933 1.705-1.163 2.875-3.321 3.509-6.474v0l0.027-0.131c0.617-3.205 0.369-5.684-0.743-7.435-1.113-1.744-2.992-2.883-5.637-3.415v0c-2.618-0.527-4.778-0.201-6.479 0.977-1.703 1.185-2.886 3.375-3.55 6.571v0l-0.027 0.132c-0.634 3.153-0.393 5.594 0.723 7.325 1.117 1.724 2.995 2.852 5.633 3.383z" fill="#9bd4ff" data-fill-palette-color="primary"></path><path d="M185.791 30.248c-1.669-0.678-2.77-1.651-3.305-2.919-0.531-1.259-0.393-2.882 0.416-4.871v0l4.627-11.382 2.791 1.135-4.55 11.19c-0.541 1.33-0.622 2.373-0.244 3.13 0.384 0.76 1.135 1.367 2.254 1.822v0c0.805 0.327 1.626 0.434 2.462 0.319 0.83-0.117 1.597-0.464 2.301-1.042 0.704-0.578 1.258-1.362 1.661-2.353v0l4.008-9.858 2.79 1.135-6.78 16.675-2.119-0.861 0.59-2.386-0.22-0.09c-1.942 1.259-4.169 1.378-6.682 0.356z" fill="#9bd4ff" data-fill-palette-color="primary"></path><path d="M202.386 38.396c-1.063-0.616-1.661-1.381-1.793-2.294-0.129-0.92 0.076-1.846 0.616-2.778v0l6.055-10.452-1.89-1.095 1.251-2.159 1.917 1.111 3.07-4 2.015 1.168-2.506 4.326 2.633 1.526-1.25 2.158-2.633-1.525-5.921 10.219c-0.536 0.926-0.368 1.641 0.503 2.146v0l1.326 0.768-0.996 1.72c-0.326-0.029-0.717-0.125-1.175-0.286-0.457-0.161-0.865-0.345-1.222-0.553z" fill="#9bd4ff" data-fill-palette-color="primary"></path><path d="M212.677 45.646c-1.828-1.37-2.777-3.038-2.847-5.005-0.068-1.957 0.864-4.225 2.797-6.804v0c1.887-2.518 3.789-4.038 5.706-4.559 1.913-0.516 3.717-0.138 5.412 1.133v0c1.022 0.766 1.773 1.57 2.253 2.413 0.481 0.843 0.698 1.791 0.651 2.842v0l0.166 0.124 5.277-7.04 2.41 1.806-14.843 19.805-1.805-1.353 1.152-2.176-0.157-0.118c-1.038 0.395-2.089 0.491-3.153 0.289-1.063-0.193-2.069-0.645-3.019-1.357zM214.775 44.088c1.298 0.973 2.586 1.227 3.866 0.763 1.274-0.468 2.581-1.597 3.922-3.386v0l0.087-0.116c1.366-1.822 2.097-3.426 2.194-4.81 0.097-1.384-0.494-2.557-1.775-3.517v0c-0.911-0.683-1.78-1.054-2.607-1.113-0.823-0.065-1.663 0.211-2.521 0.827-0.854 0.61-1.794 1.6-2.821 2.97v0l-0.087 0.116c-1.01 1.347-1.682 2.508-2.015 3.483-0.338 0.98-0.362 1.846-0.071 2.598 0.291 0.762 0.901 1.49 1.828 2.185z" fill="#9bd4ff" data-fill-palette-color="primary"></path><path d="M228.109 59.616c-1.902-2.001-2.772-4.039-2.612-6.115 0.16-2.066 1.398-4.199 3.714-6.4v0c2.316-2.201 4.51-3.329 6.58-3.383 2.076-0.05 4.064 0.926 5.966 2.926v0c1.902 2.001 2.775 4.037 2.62 6.107-0.155 2.071-1.391 4.206-3.707 6.408v0c-2.316 2.201-4.512 3.327-6.587 3.376-2.081 0.054-4.072-0.919-5.974-2.919zM229.925 57.89c1.26 1.326 2.555 1.922 3.886 1.79 1.336-0.137 2.872-1.03 4.608-2.68v0l0.202-0.192c1.736-1.65 2.706-3.138 2.911-4.466 0.205-1.327-0.323-2.654-1.583-3.979v0c-1.255-1.321-2.551-1.912-3.887-1.776-1.336 0.137-2.872 1.03-4.607 2.68v0l-0.203 0.193c-1.736 1.65-2.706 3.138-2.91 4.465-0.2 1.323 0.328 2.644 1.583 3.965z" fill="#9bd4ff" data-fill-palette-color="primary"></path><path d="M240.298 75.052c-1.551-2.283-2.079-4.436-1.583-6.457 0.493-2.012 2.062-3.916 4.704-5.711v0c2.643-1.795 4.991-2.552 7.043-2.27 2.056 0.288 3.86 1.574 5.411 3.858v0c1.551 2.283 2.082 4.434 1.593 6.451-0.49 2.018-2.056 3.924-4.699 5.72v0c-2.643 1.795-4.993 2.549-7.049 2.261-2.062-0.284-3.869-1.568-5.42-3.852zM242.371 73.645c1.028 1.513 2.209 2.312 3.543 2.398 1.341 0.082 3.001-0.55 4.982-1.895v0l0.231-0.158c1.981-1.346 3.18-2.657 3.598-3.933 0.418-1.276 0.113-2.671-0.915-4.183v0c-1.024-1.507-2.206-2.302-3.547-2.384-1.341-0.082-3.001 0.55-4.981 1.895v0l-0.232 0.157c-1.981 1.346-3.18 2.657-3.597 3.933-0.412 1.273-0.106 2.662 0.918 4.17z" fill="#9bd4ff" data-fill-palette-color="primary"></path><path d="M247.346 85.761l16.097-8.057 1.024 2.045-2.263 1.515 0.092 0.185c0.951-0.09 1.844 0.038 2.681 0.383 0.837 0.345 1.505 1.018 2.005 2.018v0c0.275 0.549 0.436 1.071 0.482 1.564v0l-2.601 1.302-0.57-1.138c-0.571-1.142-1.377-1.919-2.417-2.332-1.031-0.41-2.253-0.261-3.666 0.446v0l-9.516 4.763z" fill="#9bd4ff" data-fill-palette-color="primary"></path><path d="M254.14 103.071c-0.551-1.576-0.778-2.967-0.68-4.171 0.105-1.206 0.445-2.188 1.021-2.945 0.583-0.759 1.317-1.294 2.202-1.604v0c0.254-0.089 0.431-0.147 0.531-0.174 0.102-0.021 0.163-0.035 0.183-0.042v0l0.984 2.814-0.322 0.112c-1.01 0.353-1.63 1.016-1.86 1.989-0.23 0.972-0.123 2.094 0.321 3.364v0c0.385 1.101 0.925 1.935 1.621 2.503 0.696 0.568 1.441 0.713 2.236 0.436v0c0.625-0.219 1.065-0.603 1.319-1.152 0.26-0.552 0.395-1.169 0.405-1.853 0.018-0.679-0.023-1.582-0.125-2.709v0c-0.118-1.362-0.152-2.495-0.102-3.396 0.052-0.896 0.298-1.731 0.735-2.506 0.447-0.77 1.175-1.332 2.186-1.685v0c1.485-0.519 2.877-0.323 4.176 0.59 1.299 0.913 2.309 2.402 3.031 4.467v0c0.453 1.296 0.637 2.49 0.55 3.58-0.091 1.099-0.4 2.012-0.929 2.737-0.535 0.728-1.232 1.242-2.092 1.544v0l-0.626 0.185-0.97-2.775 0.293-0.102c0.756-0.264 1.277-0.779 1.565-1.545 0.288-0.766 0.202-1.807-0.258-3.123v0c-0.451-1.29-0.999-2.114-1.644-2.474-0.642-0.353-1.267-0.423-1.873-0.211v0c-0.495 0.173-0.842 0.499-1.039 0.978-0.192 0.476-0.291 1.019-0.297 1.628-0.006 0.609 0.043 1.44 0.148 2.492v0c0.122 1.456 0.163 2.662 0.125 3.619-0.045 0.959-0.302 1.853-0.773 2.683-0.472 0.823-1.269 1.431-2.389 1.822v0c-1.746 0.611-3.275 0.44-4.588-0.512-1.313-0.952-2.334-2.473-3.065-4.564z" fill="#9bd4ff" data-fill-palette-color="primary"></path><path d="M0.108 142.651c0-5.221 4.233-9.454 9.453-9.453 5.221 0 9.454 4.233 9.454 9.453 0 5.221-4.233 9.454-9.454 9.454-5.221 0-9.454-4.233-9.453-9.454z" fill="#9bd4ff" data-fill-palette-color="primary"></path><path d="M260.705 142.651c0-5.221 4.233-9.454 9.454-9.453 5.221 0 9.454 4.233 9.453 9.453 0 5.221-4.233 9.454-9.453 9.454-5.221 0-9.454-4.233-9.454-9.454z" fill="#9bd4ff" data-fill-palette-color="primary"></path></g><g id="text-1"><path d="M8.785 179.98l14.532-4.618 1.708 5.377c0.74 2.328 0.715 4.313-0.074 5.953-0.798 1.637-2.423 2.845-4.876 3.625v0c-2.46 0.782-4.488 0.735-6.084-0.142-1.592-0.884-2.757-2.491-3.497-4.819v0zM11.181 181.434l1.069 3.364c0.535 1.684 1.367 2.831 2.495 3.443 1.128 0.612 2.668 0.615 4.619 0.01v0l0.05-0.016c1.96-0.623 3.227-1.511 3.802-2.664 0.575-1.153 0.593-2.578 0.053-4.274v0l-1.069-3.364z" fill="#d7dbde" data-fill-palette-color="secondary"></path><path d="M27.383 191.175l1.947-0.817 0.749 1.785-1.948 0.817zM14.506 196.577l10.786-4.525 0.757 1.804-10.786 4.525z" fill="#d7dbde" data-fill-palette-color="secondary"></path><path d="M18.874 206.293c-0.491-0.958-0.761-1.832-0.809-2.622-0.039-0.787 0.095-1.448 0.401-1.985 0.306-0.537 0.73-0.944 1.27-1.221v0c0.16-0.082 0.269-0.134 0.327-0.157 0.065-0.025 0.103-0.041 0.115-0.047v0l0.884 1.722-0.194 0.1c-0.62 0.318-0.962 0.8-1.026 1.445-0.058 0.643 0.113 1.354 0.512 2.134v0c0.346 0.675 0.768 1.165 1.265 1.468 0.497 0.304 0.988 0.331 1.473 0.082v0c0.387-0.198 0.635-0.485 0.746-0.859 0.117-0.378 0.151-0.787 0.103-1.228-0.054-0.438-0.163-1.014-0.328-1.728v0c-0.197-0.868-0.32-1.592-0.369-2.172-0.046-0.589 0.039-1.149 0.256-1.679 0.214-0.536 0.631-0.963 1.25-1.281v0c0.909-0.466 1.821-0.465 2.737 0.005 0.915 0.469 1.699 1.339 2.35 2.61v0c0.403 0.786 0.625 1.537 0.667 2.252 0.044 0.706-0.071 1.32-0.347 1.842-0.279 0.515-0.682 0.908-1.21 1.179v0l-0.387 0.175-0.874-1.704 0.184-0.095c0.461-0.236 0.748-0.613 0.863-1.129 0.121-0.52-0.024-1.182-0.437-1.986v0c-0.406-0.792-0.834-1.271-1.283-1.436-0.446-0.174-0.854-0.167-1.222 0.022v0c-0.301 0.154-0.494 0.397-0.58 0.728-0.083 0.322-0.098 0.678-0.045 1.07 0.053 0.391 0.158 0.92 0.313 1.585v0c0.21 0.924 0.343 1.697 0.398 2.319 0.062 0.62-0.023 1.218-0.254 1.795-0.226 0.573-0.682 1.036-1.37 1.389v0c-1.068 0.548-2.068 0.572-3 0.072-0.928-0.494-1.721-1.382-2.379-2.665z" fill="#d7dbde" data-fill-palette-color="secondary"></path><path d="M25.629 217.865c-0.957-1.493-1.245-2.858-0.864-4.093 0.384-1.23 1.463-2.412 3.235-3.547v0c1.761-1.128 3.282-1.606 4.564-1.436 1.291 0.173 2.411 1 3.36 2.483v0c0.864 1.348 1.174 2.543 0.93 3.583-0.253 1.039-1.021 1.969-2.305 2.792v0l-1.077-1.682c0.883-0.566 1.42-1.135 1.61-1.708 0.19-0.573 0.018-1.277-0.518-2.114v0c-0.581-0.907-1.303-1.382-2.168-1.427-0.864-0.045-1.965 0.361-3.301 1.217v0l-0.079 0.05c-1.319 0.845-2.136 1.655-2.45 2.431-0.311 0.781-0.167 1.639 0.432 2.575v0c0.529 0.825 1.116 1.281 1.761 1.367 0.645 0.086 1.387-0.138 2.223-0.674v0l1.022 1.595c-1.127 0.722-2.259 0.996-3.395 0.822-1.138-0.164-2.131-0.909-2.98-2.234z" fill="#d7dbde" data-fill-palette-color="secondary"></path><path d="M33.391 228.568c-1.112-1.408-1.556-2.777-1.331-4.106 0.225-1.33 1.152-2.638 2.782-3.926v0c1.625-1.283 3.11-1.88 4.456-1.791 1.346 0.089 2.574 0.838 3.686 2.245v0c1.112 1.408 1.556 2.777 1.331 4.107-0.225 1.33-1.15 2.636-2.774 3.919v0c-1.63 1.288-3.118 1.887-4.463 1.798-1.346-0.089-2.574-0.838-3.687-2.246zM34.667 227.561c0.736 0.931 1.539 1.392 2.409 1.381 0.871-0.011 1.916-0.497 3.134-1.46v0l0.139-0.109c1.224-0.967 1.942-1.872 2.154-2.717 0.212-0.845-0.05-1.733-0.786-2.665v0c-0.736-0.931-1.539-1.392-2.41-1.381-0.871 0.011-1.918 0.5-3.142 1.467v0l-0.138 0.109c-1.218 0.962-1.934 1.866-2.146 2.711-0.212 0.845 0.05 1.733 0.786 2.664z" fill="#d7dbde" data-fill-palette-color="secondary"></path><path d="M41.922 237.881l5.39-11.231 1.444 1.483-2.753 5.557c-0.386 0.79-0.994 1.922-1.823 3.394v0l0.079 0.082c1.396-0.762 2.536-1.348 3.42-1.756v0l5.62-2.612 1.365 1.401-11.377 5.084z" fill="#d7dbde" data-fill-palette-color="secondary"></path><path d="M52.581 248.165c-1.437-1.218-2.184-2.503-2.242-3.854-0.058-1.352 0.59-2.825 1.942-4.42v0c1.352-1.595 2.697-2.472 4.036-2.631 1.343-0.165 2.733 0.362 4.169 1.58v0c1.29 1.093 1.963 2.252 2.02 3.476 0.057 1.224-0.555 2.592-1.836 4.103v0l-0.635 0.75-6.562-5.562c-0.812 1.076-1.21 2.046-1.192 2.911 0.017 0.855 0.467 1.658 1.351 2.408v0c0.711 0.602 1.425 0.928 2.145 0.976 0.723 0.043 1.371-0.272 1.941-0.946v0l1.453 1.232c-0.879 1.037-1.913 1.531-3.102 1.482-1.199-0.048-2.361-0.55-3.488-1.505zM54.555 240.394l4.975 4.217c1.468-1.732 1.439-3.245-0.088-4.539v0c-0.848-0.718-1.659-1.053-2.433-1.004-0.765 0.048-1.583 0.49-2.454 1.326z" fill="#d7dbde" data-fill-palette-color="secondary"></path><path d="M59.938 253.647l6.773-9.537 1.215 0.864-0.842 1.56 0.11 0.078c0.516-0.345 1.066-0.542 1.652-0.592 0.584-0.059 1.171 0.121 1.762 0.541v0c0.326 0.232 0.576 0.481 0.75 0.749v0l-1.091 1.536-0.666-0.474c-0.675-0.48-1.375-0.68-2.099-0.602-0.719 0.082-1.374 0.54-1.965 1.372v0l-4.004 5.638z" fill="#d7dbde" data-fill-palette-color="secondary"></path><path d="M76.288 263.654l1.991-12.049 1.813 0.887-1.295 6.743c-0.071 0.411-0.268 1.34-0.592 2.787v0l0.093 0.045 1.736-2.227 4.288-5.277 2.138 1.047-1.452 6.664c-0.083 0.405-0.308 1.32-0.676 2.747v0l0.102 0.05c0.886-1.103 1.489-1.833 1.81-2.191v0l4.512-5.168 1.72 0.842-8.304 8.959-1.915-0.938 1.552-7.008 0.572-2.393-0.074-0.037c-0.739 0.96-1.246 1.603-1.521 1.93v0l-4.564 5.533z" fill="#d7dbde" data-fill-palette-color="secondary"></path><path d="M90.607 270.332l5.46-15.12 1.84 0.665-1.933 5.354 0.146 0.053c1.122-0.71 2.456-0.786 4-0.228v0c2.291 0.827 2.987 2.487 2.087 4.98v0l-2.711 7.506-1.841-0.664 2.666-7.38c0.316-0.876 0.339-1.558 0.067-2.045-0.265-0.485-0.768-0.861-1.508-1.128v0c-0.526-0.19-1.059-0.236-1.601-0.138-0.542 0.098-1.03 0.343-1.465 0.737-0.442 0.391-0.781 0.914-1.018 1.569v0l-2.349 6.503z" fill="#d7dbde" data-fill-palette-color="secondary"></path><path d="M107.195 275.78c-0.98-0.234-1.797-0.674-2.452-1.32-0.655-0.646-0.838-1.573-0.549-2.781v0c0.348-1.457 1.237-2.298 2.667-2.524 1.425-0.234 3.363-0.059 5.813 0.526v0l0.3-1.259c0.157-0.658 0.09-1.209-0.201-1.655-0.291-0.445-0.926-0.785-1.906-1.019v0c-0.92-0.22-1.619-0.202-2.098 0.052-0.479 0.255-0.779 0.633-0.9 1.137v0l-0.06 0.252-1.842-0.44c0.006-0.084 0.037-0.243 0.093-0.478v0c0.24-1.007 0.846-1.685 1.816-2.035 0.962-0.345 2.141-0.351 3.537-0.018v0c1.416 0.338 2.42 0.89 3.011 1.655 0.597 0.767 0.767 1.691 0.509 2.772v0l-1.471 6.162c-0.062 0.262-0.038 0.47 0.074 0.624 0.119 0.156 0.286 0.26 0.501 0.311v0l0.865 0.207-0.293 1.228c-0.418 0.085-0.928 0.055-1.532-0.089v0c-0.49-0.117-0.868-0.363-1.133-0.739-0.258-0.374-0.386-0.819-0.383-1.336v0l-0.151-0.036c-0.517 0.444-1.148 0.737-1.892 0.878-0.743 0.142-1.518 0.117-2.323-0.075zM108.066 274.317c0.564 0.135 1.125 0.148 1.683 0.04 0.559-0.115 1.054-0.359 1.483-0.732 0.424-0.381 0.714-0.897 0.87-1.548v0l0.195-0.816c-1.859-0.444-3.291-0.629-4.295-0.556-0.997 0.074-1.593 0.521-1.788 1.339v0c-0.149 0.624-0.063 1.113 0.257 1.466 0.319 0.36 0.85 0.629 1.595 0.807z" fill="#d7dbde" data-fill-palette-color="secondary"></path><path d="M120.503 278.45c-0.791-0.122-1.331-0.446-1.62-0.972-0.296-0.527-0.391-1.135-0.285-1.825v0l1.196-7.754-1.402-0.217 0.248-1.606 1.422 0.219 0.913-3.137 1.494 0.23-0.494 3.202 1.954 0.302-0.248 1.606-1.954-0.301-1.168 7.58c-0.106 0.689 0.165 1.083 0.812 1.183v0l0.983 0.152-0.198 1.279c-0.204 0.052-0.464 0.086-0.78 0.099-0.316 0.014-0.608 0.001-0.873-0.04z" fill="#d7dbde" data-fill-palette-color="secondary"></path><path d="M126.66 269.842l-0.26-2.985 0.349-3.221 2.212 0.24-0.348 3.221-0.893 2.86z" fill="#d7dbde" data-fill-palette-color="secondary"></path><path d="M135.46 279.713c-1.076-0.04-1.97-0.233-2.682-0.577-0.705-0.351-1.217-0.791-1.535-1.321-0.319-0.53-0.466-1.098-0.444-1.705v0c0.007-0.179 0.015-0.3 0.024-0.362 0.009-0.069 0.014-0.11 0.015-0.124v0l1.935 0.073-0.009 0.217c-0.026 0.697 0.227 1.231 0.759 1.603 0.532 0.365 1.236 0.564 2.111 0.597v0c0.759 0.028 1.392-0.1 1.9-0.385 0.508-0.285 0.772-0.7 0.792-1.244v0c0.016-0.434-0.112-0.791-0.384-1.071-0.272-0.286-0.613-0.517-1.021-0.691-0.408-0.167-0.964-0.354-1.667-0.56v0c-0.854-0.253-1.545-0.5-2.075-0.74-0.536-0.248-0.982-0.596-1.339-1.045-0.363-0.449-0.531-1.021-0.505-1.718v0c0.038-1.021 0.486-1.815 1.342-2.384 0.857-0.569 1.999-0.826 3.427-0.772v0c0.883 0.033 1.646 0.207 2.29 0.52 0.638 0.307 1.116 0.708 1.437 1.204 0.313 0.495 0.458 1.039 0.436 1.632v0l-0.037 0.424-1.913-0.072 0.007-0.207c0.019-0.517-0.168-0.952-0.562-1.305-0.394-0.36-1.043-0.557-1.946-0.591v0c-0.89-0.033-1.516 0.106-1.88 0.416-0.37 0.304-0.563 0.663-0.579 1.077v0c-0.013 0.338 0.104 0.625 0.351 0.862 0.24 0.23 0.544 0.417 0.911 0.563 0.367 0.145 0.879 0.313 1.535 0.502v0c0.908 0.269 1.648 0.531 2.218 0.788 0.571 0.249 1.051 0.616 1.44 1.1 0.39 0.477 0.57 1.102 0.541 1.874v0c-0.045 1.2-0.513 2.084-1.404 2.651-0.884 0.568-2.047 0.825-3.489 0.771z" fill="#d7dbde" data-fill-palette-color="secondary"></path><path d="M154.414 278.647l-5.092-11.1 2-0.278 2.699 6.312c0.171 0.38 0.528 1.261 1.068 2.642v0l0.103-0.015 0.192-2.817 0.602-6.773 2.358-0.329 2.525 6.337c0.158 0.382 0.483 1.267 0.976 2.654v0l0.113-0.016c0.117-1.41 0.208-2.353 0.275-2.828v0l0.848-6.808 1.896-0.264-1.869 12.071-2.112 0.294-2.635-6.676-0.865-2.304-0.082 0.011c-0.075 1.209-0.136 2.026-0.181 2.45v0l-0.687 7.14z" fill="#d7dbde" data-fill-palette-color="secondary"></path><path d="M173.201 275.61c-0.975 0.254-1.903 0.249-2.785-0.013-0.881-0.263-1.478-0.995-1.791-2.197v0c-0.377-1.449 0.012-2.61 1.169-3.481 1.148-0.876 2.941-1.632 5.378-2.267v0l-0.326-1.252c-0.17-0.654-0.489-1.11-0.954-1.367-0.466-0.257-1.187-0.258-2.162-0.004v0c-0.915 0.238-1.524 0.582-1.828 1.032-0.304 0.45-0.39 0.925-0.26 1.426v0l0.065 0.251-1.833 0.477c-0.034-0.077-0.082-0.232-0.142-0.466v0c-0.261-1.002-0.045-1.885 0.647-2.65 0.687-0.757 1.725-1.316 3.114-1.677v0c1.409-0.367 2.554-0.351 3.435 0.047 0.888 0.396 1.471 1.132 1.752 2.208v0l1.596 6.13c0.068 0.26 0.187 0.433 0.359 0.517 0.178 0.082 0.374 0.095 0.587 0.039v0l0.862-0.224 0.318 1.222c-0.329 0.271-0.794 0.485-1.395 0.641v0c-0.488 0.127-0.936 0.087-1.347-0.12-0.404-0.209-0.726-0.542-0.966-1v0l-0.15 0.039c-0.248 0.635-0.667 1.19-1.257 1.664-0.59 0.474-1.285 0.816-2.086 1.025zM173.282 273.909c0.561-0.146 1.062-0.398 1.504-0.755 0.44-0.364 0.762-0.812 0.966-1.342 0.196-0.536 0.209-1.128 0.041-1.776v0l-0.211-0.811c-1.85 0.482-3.201 0.99-4.053 1.525-0.845 0.534-1.162 1.208-0.949 2.023v0c0.162 0.621 0.467 1.012 0.915 1.174 0.45 0.168 1.046 0.156 1.787-0.038z" fill="#d7dbde" data-fill-palette-color="secondary"></path><path d="M179.13 259.153l-0.67-2.002 1.835-0.615 0.671 2.003zM183.564 272.395l-3.714-11.092 1.855-0.621 3.714 11.091z" fill="#d7dbde" data-fill-palette-color="secondary"></path><path d="M192.255 269.364c-0.742 0.3-1.372 0.297-1.89-0.007-0.524-0.302-0.916-0.776-1.177-1.423v0l-2.938-7.275-1.315 0.531-0.609-1.507 1.334-0.539-0.819-3.163 1.401-0.566 1.213 3.004 1.833-0.74 0.609 1.507-1.833 0.74 2.872 7.112c0.261 0.646 0.695 0.847 1.303 0.602v0l0.922-0.373 0.484 1.2c-0.148 0.149-0.355 0.311-0.619 0.485-0.265 0.174-0.522 0.311-0.771 0.412z" fill="#d7dbde" data-fill-palette-color="secondary"></path><path d="M191.012 254.411l-0.876-1.921 1.761-0.804 0.876 1.922zM196.808 267.115l-4.855-10.642 1.78-0.812 4.854 10.642z" fill="#d7dbde" data-fill-palette-color="secondary"></path><path d="M202.755 264.148l-5.651-10.241 1.305-0.721 0.955 1.282 0.136-0.075c0.162-1.492 1.013-2.663 2.554-3.514v0c1.027-0.567 1.967-0.727 2.82-0.48 0.859 0.243 1.626 0.975 2.299 2.195v0l3.856 6.987-1.712 0.946-3.791-6.87c-0.45-0.816-0.948-1.282-1.494-1.399-0.539-0.12-1.153 0.01-1.842 0.39v0c-0.489 0.27-0.876 0.641-1.159 1.113-0.284 0.472-0.421 1.001-0.413 1.587 0.002 0.59 0.172 1.19 0.509 1.8v0l3.341 6.054z" fill="#d7dbde" data-fill-palette-color="secondary"></path><path d="M219.088 258.978c-0.704 0.499-1.439 0.75-2.207 0.753-0.764 0.009-1.437-0.398-2.02-1.22v0c-0.702-0.991-0.669-2.03 0.1-3.116v0c-0.399 0.046-0.782 0.013-1.148-0.1-0.361-0.116-0.658-0.337-0.89-0.663v0c-0.335-0.473-0.423-0.948-0.262-1.426 0.161-0.478 0.407-0.906 0.739-1.285v0c-0.607-0.009-1.176-0.143-1.706-0.402-0.525-0.263-0.966-0.647-1.326-1.154v0c-0.722-1.019-0.938-2.051-0.646-3.094 0.288-1.05 1.031-2 2.23-2.851v0c0.664-0.471 1.345-0.793 2.043-0.966v0c0.519-0.926 0.589-1.801 0.209-2.622v0l1.52-1.078c0.403 0.569 0.584 1.176 0.544 1.823-0.041 0.646-0.298 1.239-0.771 1.777v0c1.108 0.119 1.98 0.627 2.614 1.521v0c0.718 1.013 0.928 2.049 0.63 3.107-0.293 1.054-1.04 2.006-2.239 2.856v0l-1.52 1.078c-0.327 0.232-0.528 0.484-0.604 0.758-0.075 0.264-0.03 0.512 0.133 0.743v0c0.164 0.231 0.385 0.358 0.663 0.38 0.284 0.019 0.589-0.088 0.916-0.319v0l3.825-2.712c0.749-0.531 1.499-0.725 2.252-0.582 0.757 0.149 1.361 0.541 1.812 1.177v0c0.327 0.462 0.539 0.975 0.636 1.542 0.091 0.57 0.007 1.15-0.252 1.739-0.268 0.588-0.746 1.125-1.432 1.612v0zM215.645 249.593c0.749-0.531 1.196-1.106 1.34-1.724 0.141-0.624-0.01-1.249-0.453-1.874v0c-0.447-0.631-0.986-0.98-1.618-1.048-0.632-0.068-1.322 0.163-2.071 0.694v0c-0.749 0.531-1.196 1.106-1.341 1.725-0.139 0.615 0.015 1.237 0.462 1.868v0c0.443 0.625 0.98 0.976 1.61 1.054 0.632 0.068 1.322-0.163 2.071-0.695zM218.316 257.584l3.732-2.646c0.4-0.283 0.656-0.626 0.769-1.027 0.115-0.411 0.044-0.797-0.211-1.157v0c-0.259-0.366-0.57-0.577-0.932-0.634-0.366-0.062-0.723 0.03-1.072 0.278v0l-3.968 2.814c-0.349 0.247-0.552 0.552-0.609 0.913-0.055 0.352 0.047 0.711 0.307 1.077v0c0.255 0.36 0.562 0.578 0.92 0.654 0.36 0.066 0.714-0.024 1.064-0.272z" fill="#d7dbde" data-fill-palette-color="secondary"></path><path d="M232.569 243.119l-6.917-7.322-1.249 1.18-1.116-1.181 1.249-1.18-1.279-1.354c-0.531-0.562-0.831-1.161-0.901-1.798-0.075-0.632 0.221-1.263 0.889-1.893v0c0.216-0.204 0.453-0.39 0.711-0.559 0.254-0.173 0.485-0.306 0.692-0.397v0l0.932 0.985-0.843 0.797c-0.527 0.498-0.546 1.005-0.058 1.521v0l1.28 1.354 1.632-1.542 1.116 1.181-1.632 1.543 6.916 7.321z" fill="#d7dbde" data-fill-palette-color="secondary"></path><path d="M241.227 234.58c-1.207 1.328-2.485 1.989-3.833 1.985-1.349-0.004-2.791-0.705-4.328-2.102v0c-1.532-1.393-2.364-2.76-2.496-4.102-0.132-1.342 0.405-2.677 1.612-4.005v0c1.207-1.328 2.485-1.989 3.833-1.985 1.349 0.004 2.789 0.703 4.32 2.095v0c1.537 1.397 2.372 2.767 2.504 4.109 0.132 1.342-0.405 2.677-1.612 4.005zM240.025 233.486c0.798-0.878 1.121-1.746 0.968-2.603-0.153-0.857-0.804-1.808-1.953-2.853v0l-0.131-0.118c-1.154-1.049-2.165-1.609-3.033-1.68-0.868-0.071-1.701 0.333-2.499 1.21v0c-0.798 0.878-1.121 1.746-0.968 2.604 0.153 0.857 0.807 1.811 1.96 2.86v0l0.131 0.118c1.149 1.044 2.157 1.602 3.025 1.673 0.868 0.071 1.701-0.333 2.5-1.211z" fill="#d7dbde" data-fill-palette-color="secondary"></path><path d="M247.147 227.23l-9.29-7.107 0.906-1.184 1.53 0.896 0.081-0.107c-0.326-0.528-0.504-1.085-0.532-1.671-0.039-0.586 0.162-1.166 0.602-1.742v0c0.243-0.318 0.502-0.559 0.775-0.723v0l1.496 1.144-0.496 0.65c-0.503 0.658-0.729 1.35-0.677 2.076 0.057 0.721 0.49 1.392 1.302 2.012v0l5.492 4.202z" fill="#d7dbde" data-fill-palette-color="secondary"></path><path d="M260.765 214.254c-0.317 0.566-0.621 0.989-0.912 1.269v0l-1.111-0.622 0.379-0.678c0.739-1.318 0.469-2.609-0.809-3.87v0l-12.411-1.78 1.012-1.807 6.165 0.963c0.874 0.134 2.149 0.365 3.823 0.694v0l0.056-0.099c-1.109-1.112-2.001-2.027-2.675-2.745v0l-4.186-4.493 0.956-1.706 7.799 8.783c1.041 1.177 1.754 2.248 2.138 3.215 0.381 0.973 0.306 1.931-0.224 2.876z" fill="#d7dbde" data-fill-palette-color="secondary"></path><path d="M264.924 197.652c-0.723 1.642-1.724 2.675-3.004 3.1-1.28 0.424-2.871 0.218-4.772-0.619v0c-1.895-0.834-3.118-1.867-3.669-3.097-0.552-1.231-0.466-2.667 0.257-4.309v0c0.723-1.642 1.724-2.675 3.004-3.1 1.28-0.424 2.867-0.219 4.763 0.615v0c1.901 0.837 3.127 1.871 3.679 3.101 0.552 1.231 0.466 2.667-0.258 4.309zM263.437 196.998c0.478-1.086 0.509-2.012 0.091-2.776-0.417-0.764-1.337-1.459-2.758-2.085v0l-0.161-0.071c-1.427-0.628-2.564-0.839-3.409-0.631-0.846 0.208-1.508 0.856-1.986 1.942v0c-0.478 1.086-0.509 2.012-0.091 2.776 0.417 0.764 1.34 1.461 2.767 2.09v0l0.161 0.07c1.421 0.626 2.554 0.834 3.4 0.627 0.846-0.208 1.508-0.856 1.986-1.942z" fill="#d7dbde" data-fill-palette-color="secondary"></path><path d="M269.578 185.394c-0.364 1.115-0.942 1.874-1.734 2.276-0.8 0.407-1.863 0.394-3.188-0.038v0l-7.588-2.476 0.607-1.859 7.469 2.436c0.886 0.289 1.564 0.289 2.036 0 0.476-0.28 0.835-0.791 1.077-1.532v0c0.176-0.538 0.206-1.076 0.091-1.614-0.11-0.53-0.371-1.01-0.781-1.442-0.404-0.43-0.938-0.752-1.601-0.969v0l-6.573-2.144 0.606-1.86 11.121 3.628-0.463 1.417-1.563-0.282-0.048 0.148c0.9 1.201 1.077 2.638 0.532 4.311z" fill="#d7dbde" data-fill-palette-color="secondary"></path></g></svg></g></svg></g></svg></g></svg></g><defs></defs></svg><rect width="279.72" height="279.72" fill="none" stroke="none" visibility="hidden"></rect></g></svg></g></svg>